<?xml version="1.0" standalone="no"?>
<!DOCTYPE svg PUBLIC "-//W3C//DTD SVG 20010904//EN"
 "http://www.w3.org/TR/2001/REC-SVG-20010904/DTD/svg10.dtd">
<svg version="1.0" xmlns="http://www.w3.org/2000/svg"
 width="398.000000pt" height="398.000000pt" viewBox="0 0 398.000000 398.000000"
 preserveAspectRatio="xMidYMid meet">
<metadata>
Created by potrace 1.11, written by Peter Selinger 2001-2013
</metadata>
<g transform="translate(0.000000,398.000000) scale(0.100000,-0.100000)"
fill="#000000" stroke="none">
<path d="M1776 2998 c-208 -28 -364 -111 -463 -246 -25 -34 -60 -72 -77 -84
-49 -33 -113 -107 -146 -169 -57 -107 -64 -157 -62 -428 l1 -243 -25 -34 c-28
-36 -50 -104 -48 -144 7 -133 38 -242 92 -326 44 -67 113 -134 140 -134 32 0
43 -17 62 -93 11 -42 31 -100 46 -129 32 -63 198 -233 292 -297 34 -24 62 -48
62 -52 0 -5 -16 -9 -36 -9 -19 0 -108 -16 -197 -35 -89 -19 -173 -36 -187 -39
-77 -14 -217 -46 -232 -51 -36 -14 -31 -18 152 -117 228 -123 566 -200 849
-192 285 8 527 70 797 207 123 61 153 82 139 96 -5 5 -118 33 -250 61 -132 28
-256 55 -276 60 -20 6 -55 11 -78 12 -63 2 -63 2 79 116 175 140 229 219 279
408 9 35 16 42 48 52 46 14 77 41 124 107 68 96 97 182 106 311 5 76 2 100
-15 150 -17 50 -22 94 -26 260 -10 346 -19 401 -91 531 -44 79 -170 209 -260
270 -121 81 -279 149 -408 174 -67 13 -315 18 -391 7z"/>
</g>
</svg>
